# xmcd
#
# Track frame offsets:
#	150
#	9465
#	21480
#	30915
#	43095
#	53820
#	63825
#	74910
#	86438
#	96458
#	106133
#	116221
#
# Disc length: 1680 seconds
#
# Revision: 1
# Processed by: cddbd v1.5.2PL0 Copyright (c) Steve Scherf et al.
# Submitted via: audiograbber 1.83.01
#
DISCID=a1068e0c
DTITLE=Hank Thompson - The Best Of
DYEAR=1964
DGENRE=Country
TTITLE0=Humpty Dumpty Heart
TTITLE1=The Wild Side Of Life
TTITLE2=A Six Pack To Go
TTITLE3=Oklahoma Hills
TTITLE4=Waiting In The Lobby Of Your Heart
TTITLE5=Wake Up, Irene
TTITLE6=Squaws Along The Yukon
TTITLE7=Hangover Tavern
TTITLE8=Rub-A-Dub-Tub
TTITLE9=The New Green Light
TTITLE10=The Blackboard Of My Heart
TTITLE11=Whoa Sailor
EXTD=
EXTT0=
EXTT1=
EXTT2=
EXTT3=
EXTT4=
EXTT5=
EXTT6=
EXTT7=
EXTT8=
EXTT9=
EXTT10=
EXTT11=
PLAYORDER=
